<svg xmlns="http://www.w3.org/2000/svg" width="422.752" height="877.615"><defs><clipPath clipPathUnits="userSpaceOnUse" id="w"><path d="M5539.65 2154.78c-11.99 0-21.73 9.75-21.73 21.73s9.74 21.71 21.73 21.71h879.22c11.98 0 21.72-9.73 21.72-21.71s-9.74-21.73-21.72-21.73h-879.22"/></clipPath><clipPath clipPathUnits="userSpaceOnUse" id="v"><path d="M5842.98 8216.48c-11.97 0-21.72 9.75-21.72 21.73s9.75 21.73 21.72 21.73h268.45c11.99 0 21.71-9.75 21.71-21.73s-9.72-21.73-21.71-21.73h-268.45"/></clipPath><clipPath clipPathUnits="userSpaceOnUse" id="t"><path d="M5631.39 8244.72c1.59-.14 3.19-.24 4.82-.24 29.83 0 54.02 24.18 54.02 54.01 0 1.63-.11 3.23-.26 4.83-5.61-29.64-28.94-52.97-58.58-58.6z"/></clipPath><clipPath clipPathUnits="userSpaceOnUse" id="r"><path d="M5669.5 8297.94c0-18.08-14.66-32.74-32.74-32.74-18.08 0-32.75 14.66-32.75 32.74 0 18.08 14.67 32.73 32.75 32.73s32.74-14.65 32.74-32.73z"/></clipPath><clipPath clipPathUnits="userSpaceOnUse" id="p"><path d="M5690.46 8297.94c0-29.66-24.04-53.71-53.7-53.71-29.66 0-53.7 24.05-53.7 53.71 0 29.65 24.04 53.7 53.7 53.7 29.66 0 53.7-24.05 53.7-53.7z"/></clipPath><clipPath clipPathUnits="userSpaceOnUse" id="n"><path d="M6306.15 8244.72c1.58-.14 3.21-.24 4.83-.24 29.83 0 54.01 24.18 54.01 54.01 0 1.63-.12 3.23-.24 4.83-5.62-29.64-28.96-52.97-58.6-58.6z"/></clipPath><clipPath clipPathUnits="userSpaceOnUse" id="l"><path d="M6344.27 8297.94c0-18.08-14.66-32.74-32.74-32.74-18.07 0-32.73 14.66-32.73 32.74 0 18.08 14.66 32.73 32.73 32.73 18.08 0 32.74-14.65 32.74-32.73z"/></clipPath><clipPath clipPathUnits="userSpaceOnUse" id="j"><path d="M6365.23 8297.94c0-29.66-24.04-53.71-53.7-53.71-29.65 0-53.71 24.05-53.71 53.71 0 29.65 24.06 53.7 53.71 53.7 29.66 0 53.7-24.05 53.7-53.7z"/></clipPath><clipPath clipPathUnits="userSpaceOnUse" id="i"><path d="M5348.04 8460.55h-621.61c-123.14 0-222.97-99.84-222.97-222.99V2521.29c0-64.26 52.17-116.34 116.54-116.34h2718.44c64.37 0 116.56 52.08 116.56 116.34v5716.27c0 123.15-99.83 222.99-222.99 222.99h-623.17c-58.9 0-106.65-47.75-106.65-106.65v-48.5c0-107.09-86.82-193.9-193.9-193.9h-659.86c-107.09 0-193.92 86.81-193.92 193.9v48.5h.17c0 58.9-47.74 106.65-106.64 106.65z"/></clipPath><clipPath clipPathUnits="userSpaceOnUse" id="g"><path d="M7515.67 2325.62v5920.86c0 105.87-54.9 199.11-137.68 252.94 88.84-52.44 148.56-148.95 148.56-259.18V2331.86c0-110.21-59.71-206.72-148.53-259.16 82.75 53.85 137.65 147.08 137.65 252.92z"/></clipPath><clipPath clipPathUnits="userSpaceOnUse" id="e"><path d="M7474.33 2324.62v5922.86c0 147.13-119.68 266.81-266.8 266.81h26.11c147.12 0 266.83-119.68 266.83-266.81V2324.62c0-147.12-119.71-266.82-266.83-266.82h-26.11c147.12 0 266.8 119.7 266.8 266.82z"/></clipPath><clipPath clipPathUnits="userSpaceOnUse" id="c"><path d="M4440.05 2325.62v5920.86c0 105.87 54.9 199.11 137.67 252.94-88.82-52.44-148.56-148.95-148.56-259.18V2331.86c0-110.21 59.72-206.72 148.54-259.16-82.76 53.85-137.65 147.08-137.65 252.92z"/></clipPath><clipPath clipPathUnits="userSpaceOnUse" id="a"><path d="M4481.39 2324.62v5922.86c0 147.13 119.69 266.81 266.82 266.81h-26.14c-147.12 0-266.8-119.68-266.8-266.81V2324.62c0-147.12 119.68-266.82 266.8-266.82h26.14c-147.13 0-266.82 119.7-266.82 266.82z"/></clipPath><linearGradient x1="0" y1="0" x2="1" y2="0" gradientUnits="userSpaceOnUse" gradientTransform="matrix(292.939 0 0 -292.939 4455.27 5286.04)" spreadMethod="pad" id="b"><stop offset="0" stop-color="#afafaf"/><stop offset=".102" stop-color="#656365"/><stop offset=".323" stop-color="#343537"/><stop offset="1" stop-color="#343537"/></linearGradient><linearGradient x1="0" y1="0" x2="1" y2="0" gradientUnits="userSpaceOnUse" gradientTransform="matrix(148.564 0 0 -148.564 4429.16 5286.05)" spreadMethod="pad" id="d"><stop offset="0" stop-color="#afafaf"/><stop offset=".102" stop-color="#656365"/><stop offset=".323" stop-color="#343537"/><stop offset="1" stop-color="#343537"/></linearGradient><linearGradient x1="0" y1="0" x2="1" y2="0" gradientUnits="userSpaceOnUse" gradientTransform="rotate(180 3750.235 2643.02) scale(292.939)" spreadMethod="pad" id="f"><stop offset="0" stop-color="#afafaf"/><stop offset=".102" stop-color="#656365"/><stop offset=".323" stop-color="#343537"/><stop offset="1" stop-color="#343537"/></linearGradient><linearGradient x1="0" y1="0" x2="1" y2="0" gradientUnits="userSpaceOnUse" gradientTransform="matrix(148.564 0 0 -148.564 7377.99 5286.05)" spreadMethod="pad" id="h"><stop offset="0" stop-color="#343537"/><stop offset=".677" stop-color="#343537"/><stop offset=".898" stop-color="#656365"/><stop offset="1" stop-color="#afafaf"/></linearGradient><linearGradient x1="0" y1="0" x2="1" y2="0" gradientUnits="userSpaceOnUse" gradientTransform="scale(101.1712 -101.1712) rotate(54.192 111.605 19.45)" spreadMethod="pad" id="k"><stop offset="0" stop-color="#3f4142"/><stop offset=".366" stop-color="#181a1c"/><stop offset=".968" stop-color="#3f4142"/><stop offset="1" stop-color="#3f4142"/></linearGradient><linearGradient x1="0" y1="0" x2="1" y2="0" gradientUnits="userSpaceOnUse" gradientTransform="scale(68.8687 -68.8687) rotate(-47.761 -89.308 -163.495)" spreadMethod="pad" id="o"><stop offset="0" stop-color="#343537"/><stop offset=".505" stop-color="#656365"/><stop offset=".823" stop-color="#343537"/><stop offset="1" stop-color="#343537"/></linearGradient><linearGradient x1="0" y1="0" x2="1" y2="0" gradientUnits="userSpaceOnUse" gradientTransform="scale(101.1712 -101.1712) rotate(54.192 108.27 12.931)" spreadMethod="pad" id="q"><stop offset="0" stop-color="#3f4142"/><stop offset=".366" stop-color="#181a1c"/><stop offset=".968" stop-color="#3f4142"/><stop offset="1" stop-color="#3f4142"/></linearGradient><linearGradient x1="0" y1="0" x2="1" y2="0" gradientUnits="userSpaceOnUse" gradientTransform="scale(68.8647 -68.8647) rotate(-47.761 -94.213 -152.439)" spreadMethod="pad" id="u"><stop offset="0" stop-color="#343537"/><stop offset=".505" stop-color="#656365"/><stop offset=".823" stop-color="#343537"/><stop offset="1" stop-color="#343537"/></linearGradient><radialGradient fx="0" fy="0" cx="0" cy="0" r="1" gradientUnits="userSpaceOnUse" gradientTransform="matrix(32.7417 0 0 -32.7417 5636.76 8297.93)" spreadMethod="pad" id="s"><stop offset="0" stop-color="#3f4142"/><stop offset=".366" stop-color="#181a1c"/><stop offset=".968" stop-color="#3f4142"/><stop offset="1" stop-color="#3f4142"/></radialGradient><radialGradient fx="0" fy="0" cx="0" cy="0" r="1" gradientUnits="userSpaceOnUse" gradientTransform="matrix(32.7368 0 0 -32.7368 6311.53 8297.93)" spreadMethod="pad" id="m"><stop offset="0" stop-color="#3f4142"/><stop offset=".366" stop-color="#181a1c"/><stop offset=".968" stop-color="#3f4142"/><stop offset="1" stop-color="#3f4142"/></radialGradient></defs><path d="M422.752 833.665c0 24.275-19.677 43.95-43.952 43.95H43.95C19.676 877.615 0 857.94 0 833.665V43.951C0 19.676 19.677 0 43.95 0H378.8c24.275 0 43.952 19.676 43.952 43.95v789.715" fill="#1e1f1f"/><path d="M43.95 873.895v-.667c-10.909 0-20.795-4.436-27.96-11.601-7.166-7.167-11.6-17.054-11.6-27.962V43.951c0-10.91 4.434-20.796 11.6-27.962 7.165-7.165 17.051-11.6 27.96-11.6H378.8c10.91 0 20.795 4.435 27.961 11.6 7.164 7.166 11.599 17.052 11.6 27.962v789.714c0 10.908-4.436 20.795-11.6 27.962-7.166 7.165-17.052 11.6-27.961 11.6H43.95v1.334H378.8c22.553 0 40.893-18.345 40.895-40.896V43.951c-.001-22.552-18.343-40.895-40.895-40.895H43.95c-22.551 0-40.893 18.343-40.894 40.895v789.714c.001 22.55 18.343 40.895 40.893 40.896v-.666" fill="#363636"/><g clip-path="url(#a)" transform="matrix(.13333 0 0 -.13333 -585.66 1143.615)"><path d="M4481.39 2324.62v5922.86c0 147.13 119.69 266.81 266.82 266.81h-26.14c-147.12 0-266.8-119.68-266.8-266.81V2324.62c0-147.12 119.68-266.82 266.8-266.82h26.14c-147.13 0-266.82 119.7-266.82 266.82" fill="url(#b)"/></g><g clip-path="url(#c)" transform="matrix(.13333 0 0 -.13333 -585.66 1143.615)"><path d="M4440.05 2325.62v5920.86c0 105.87 54.9 199.11 137.67 252.94-88.82-52.44-148.56-148.95-148.56-259.18V2331.86c0-110.21 59.72-206.72 148.54-259.16-82.76 53.85-137.65 147.08-137.65 252.92" fill="url(#d)"/></g><g clip-path="url(#e)" transform="matrix(.13333 0 0 -.13333 -585.66 1143.615)"><path d="M7474.33 2324.62v5922.86c0 147.13-119.68 266.81-266.8 266.81h26.11c147.12 0 266.83-119.68 266.83-266.81V2324.62c0-147.12-119.71-266.82-266.83-266.82h-26.11c147.12 0 266.8 119.7 266.8 266.82" fill="url(#f)"/></g><g clip-path="url(#g)" transform="matrix(.13333 0 0 -.13333 -585.66 1143.615)"><path d="M7515.67 2325.62v5920.86c0 105.87-54.9 199.11-137.68 252.94 88.84-52.44 148.56-148.95 148.56-259.18V2331.86c0-110.21-59.71-206.72-148.53-259.16 82.75 53.85 137.65 147.08 137.65 252.92" fill="url(#h)"/></g><g clip-path="url(#i)" transform="matrix(.13333 0 0 -.13333 -585.66 1143.615)"><path d="M5348.04 8460.55h-621.61c-123.14 0-222.97-99.84-222.97-222.99V2521.29c0-64.26 52.17-116.34 116.54-116.34h2718.44c64.37 0 116.56 52.08 116.56 116.34v5716.27c0 123.15-99.83 222.99-222.99 222.99h-623.17c-58.9 0-106.65-47.75-106.65-106.65v-48.5c0-107.09-86.82-193.9-193.9-193.9h-659.86c-107.09 0-193.92 86.81-193.92 193.9v48.5h.17c0 58.9-47.74 106.65-106.64 106.65"/></g><path d="M166.795 35.056a.444.444 0 11-.887 0 .444.444 0 01.887 0" fill="#5c5478"/><path d="M266.313 37.223c0 5.765-4.67 10.437-10.436 10.437-5.765 0-10.438-4.672-10.438-10.437 0-5.764 4.673-10.438 10.438-10.438 5.766 0 10.436 4.674 10.436 10.438" fill="#1a1f24"/><g clip-path="url(#j)" transform="matrix(.13333 0 0 -.13333 -585.66 1143.615)"><path d="M6365.23 8297.94c0-29.66-24.04-53.71-53.7-53.71-29.65 0-53.71 24.05-53.71 53.71 0 29.65 24.06 53.7 53.71 53.7 29.66 0 53.7-24.05 53.7-53.7" fill="url(#k)"/></g><g clip-path="url(#l)" transform="matrix(.13333 0 0 -.13333 -585.66 1143.615)"><path d="M6344.27 8297.94c0-18.08-14.66-32.74-32.74-32.74-18.07 0-32.73 14.66-32.73 32.74 0 18.08 14.66 32.73 32.73 32.73 18.08 0 32.74-14.65 32.74-32.73" fill="url(#m)"/></g><g clip-path="url(#n)" transform="matrix(.13333 0 0 -.13333 -585.66 1143.615)"><path d="M6306.15 8244.72c1.58-.14 3.21-.24 4.83-.24 29.83 0 54.01 24.18 54.01 54.01 0 1.63-.12 3.23-.24 4.83-5.62-29.64-28.96-52.97-58.6-58.6" fill="url(#o)"/></g><path d="M251.767 36.505c0-.334.038-.66.101-.976a4.354 4.354 0 004.004 6.047 5.188 5.188 0 01-4.105-5.07" fill="#444d57"/><path d="M257.397 35.263a.627.627 0 01-1.252 0 .627.627 0 011.252 0" fill="#c4cfd7"/><path d="M255.295 38.89a.713.713 0 11-1.43.003.713.713 0 011.43-.002" fill="#2e423f"/><path d="M257.843 33.676a.443.443 0 11-.89-.001.443.443 0 01.89.001" fill="#b9a6ac"/><path d="M176.347 37.223c0 5.765-4.675 10.437-10.439 10.437-5.763 0-10.437-4.672-10.437-10.437 0-5.764 4.674-10.438 10.437-10.438 5.764 0 10.439 4.674 10.439 10.438" fill="#1a1f24"/><g clip-path="url(#p)" transform="matrix(.13333 0 0 -.13333 -585.66 1143.615)"><path d="M5690.46 8297.94c0-29.66-24.04-53.71-53.7-53.71-29.66 0-53.7 24.05-53.7 53.71 0 29.65 24.04 53.7 53.7 53.7 29.66 0 53.7-24.05 53.7-53.7" fill="url(#q)"/></g><g clip-path="url(#r)" transform="matrix(.13333 0 0 -.13333 -585.66 1143.615)"><path d="M5669.5 8297.94c0-18.08-14.66-32.74-32.74-32.74-18.08 0-32.75 14.66-32.75 32.74 0 18.08 14.67 32.73 32.75 32.73s32.74-14.65 32.74-32.73" fill="url(#s)"/></g><g clip-path="url(#t)" transform="matrix(.13333 0 0 -.13333 -585.66 1143.615)"><path d="M5631.39 8244.72c1.59-.14 3.19-.24 4.82-.24 29.83 0 54.02 24.18 54.02 54.01 0 1.63-.11 3.23-.26 4.83-5.61-29.64-28.94-52.97-58.58-58.6" fill="url(#u)"/></g><path d="M161.799 36.505c0-.334.038-.66.098-.976a4.355 4.355 0 004.007 6.047 5.187 5.187 0 01-4.105-5.07" fill="#444d57"/><path d="M167.43 35.263a.626.626 0 11-1.252-.001.626.626 0 011.251 0" fill="#c4cfd7"/><path d="M165.327 38.89a.714.714 0 11-1.428.002.714.714 0 011.428-.001" fill="#2e423f"/><path d="M167.872 33.676a.442.442 0 11-.885 0 .443.443 0 01.885 0" fill="#b9a6ac"/><path d="M229.197 49.015h-35.793a3.83 3.83 0 01-3.825-3.828 3.829 3.829 0 013.825-3.827h35.793a3.831 3.831 0 013.828 3.827 3.832 3.832 0 01-3.828 3.828zm0-8.587h-35.793a4.759 4.759 0 000 9.517h35.793a4.759 4.759 0 000-9.517" fill="#2b2b2b"/><g clip-path="url(#v)" fill="#5a5a5a" transform="matrix(.13333 0 0 -.13333 -585.66 1143.615)"><path d="M5832.08 8204.56l-10.21 10.21 11.1 11.08-11.1 11.09 11.1 11.1-11.09 11.08 10.2 10.21-1.76 1.77-11.98-11.98 11.09-11.08-11.09-11.1 11.09-11.08-11.09-11.09 11.98-11.98 1.76 1.77M5848.23 8204.56l-10.21 10.21 11.09 11.08-11.09 11.09 11.09 11.1-11.09 11.08 10.21 10.21-1.77 1.77-11.98-11.98 11.09-11.08-11.09-11.1 11.09-11.08-11.09-11.09 11.98-11.98 1.77 1.77M5864.38 8204.56l-10.21 10.21 11.09 11.08-11.09 11.09 11.09 11.1-11.09 11.08 10.21 10.21-1.77 1.77-11.98-11.98 11.1-11.08-11.1-11.1 11.1-11.08-11.1-11.09 11.98-11.98 1.77 1.77M5880.52 8204.56l-10.21 10.21 11.1 11.08-11.1 11.09 11.1 11.1-11.1 11.08 10.21 10.21-1.77 1.77-11.97-11.98 11.09-11.08-11.09-11.1 11.09-11.08-11.09-11.09 11.97-11.98 1.77 1.77M5896.67 8204.56l-10.21 10.21 11.1 11.08-11.1 11.09 11.1 11.1-11.1 11.08 10.21 10.21-1.76 1.77-11.98-11.98 11.09-11.08-11.09-11.1 11.09-11.08-11.09-11.09 11.98-11.98 1.76 1.77M5912.82 8204.56l-10.21 10.21 11.09 11.08-11.09 11.09 11.09 11.1-11.09 11.08 10.21 10.21-1.77 1.77-11.98-11.98 11.09-11.08-11.09-11.1 11.09-11.08-11.09-11.09 11.98-11.98 1.77 1.77M5928.97 8204.56l-10.21 10.21 11.09 11.08-11.09 11.09 11.09 11.1-11.09 11.08 10.21 10.21-1.77 1.77-11.98-11.98 11.1-11.08-11.1-11.1 11.1-11.08-11.1-11.09 11.98-11.98 1.77 1.77M5945.11 8204.56l-10.21 10.21 11.1 11.08-11.1 11.09 11.1 11.1-11.1 11.08 10.21 10.21-1.77 1.77-11.97-11.98 11.09-11.08-11.09-11.1 11.09-11.08-11.09-11.09 11.97-11.98 1.77 1.77M5961.26 8204.56l-10.21 10.21 11.1 11.08-11.1 11.09 11.1 11.1-11.1 11.08 10.21 10.21-1.76 1.77-11.98-11.98 11.09-11.08-11.09-11.1 11.09-11.08-11.09-11.09 11.98-11.98 1.76 1.77M5977.41 8204.56l-10.22 10.21 11.1 11.08-11.1 11.09 11.1 11.1-11.1 11.08 10.22 10.21-1.77 1.77-11.99-11.98 11.1-11.08-11.1-11.1 11.1-11.09-11.1-11.08 11.99-11.98 1.77 1.77M5993.56 8204.56l-10.23 10.21 11.12 11.09-11.12 11.08 11.12 11.1-11.12 11.08 10.23 10.21-1.77 1.77-12-11.98 11.12-11.08-11.12-11.1 11.12-11.08-11.12-11.09 12-11.98 1.77 1.77M6009.7 8204.56l-10.22 10.21 11.11 11.08-11.11 11.09 11.11 11.1-11.11 11.08 10.22 10.21-1.76 1.77-11.99-11.98 11.1-11.08-11.1-11.1 11.1-11.09-11.1-11.08 11.98-11.98 1.77 1.77M6025.83 8204.56l-10.2 10.21 11.09 11.08-11.1 11.09 11.1 11.1-11.09 11.08 10.2 10.21-1.76 1.77-11.98-11.98 11.09-11.08-11.09-11.1 11.09-11.08-11.09-11.09 11.98-11.98 1.76 1.77M6041.99 8204.56l-10.21 10.21 11.09 11.08-11.09 11.09 11.09 11.1-11.09 11.08 10.21 10.21-1.77 1.77-11.98-11.98 11.09-11.08-11.09-11.1 11.09-11.08-11.09-11.09 11.98-11.98 1.77 1.77M6058.13 8204.56l-10.21 10.21 11.09 11.08-11.09 11.09 11.09 11.1-11.09 11.08 10.21 10.21-1.77 1.77-11.98-11.98 11.1-11.08-11.1-11.1 11.1-11.08-11.1-11.09 11.98-11.98 1.77 1.77M6074.26 8204.56l-10.19 10.21 11.08 11.08-11.08 11.09 11.08 11.1-11.08 11.08 10.19 10.21-1.77 1.77-11.95-11.98 11.07-11.08-11.07-11.1 11.07-11.08-11.07-11.09 11.95-11.98 1.77 1.77M6090.42 8204.56l-10.21 10.21 11.1 11.08-11.1 11.09 11.1 11.1-11.1 11.08 10.21 10.21-1.76 1.77-11.98-11.98 11.09-11.08-11.09-11.1 11.09-11.08-11.09-11.09 11.98-11.98 1.76 1.77M6106.58 8204.56l-10.21 10.21 11.09 11.08-11.09 11.09 11.09 11.1-11.09 11.08 10.21 10.21-1.77 1.77-11.98-11.98 11.09-11.08-11.09-11.1 11.09-11.08-11.09-11.09 11.98-11.98 1.77 1.77M6122.72 8204.56l-10.22 10.21 11.1 11.08-11.1 11.09 11.1 11.1-11.1 11.08 10.22 10.21-1.77 1.77-11.99-11.98 11.11-11.08-11.11-11.1 11.11-11.09-11.11-11.08 11.99-11.98 1.77 1.77M6138.85 8204.56l-10.21 10.21 11.1 11.08-11.1 11.09 11.1 11.1-11.1 11.08 10.21 10.21-1.77 1.77-11.97-11.98 11.09-11.08-11.09-11.1 11.09-11.08-11.09-11.09 11.97-11.98 1.77 1.77"/><path d="M5824.15 8204.56l-10.21 10.21 11.1 11.08-11.09 11.09 11.09 11.1-11.09 11.08 10.21 10.21-1.77 1.77-11.98-11.98 11.09-11.08-11.09-11.1 11.09-11.08-11.09-11.09 11.98-11.98 1.77 1.77M5840.3 8204.56l-10.22 10.21 11.1 11.08-11.1 11.09 11.1 11.1-11.1 11.08 10.22 10.21-1.77 1.77-11.99-11.98 11.1-11.08-11.1-11.1 11.1-11.09-11.1-11.08 11.99-11.98 1.77 1.77M5856.45 8204.56l-10.21 10.21 11.09 11.08-11.09 11.09 11.09 11.1-11.09 11.08 10.21 10.21-1.77 1.77-11.98-11.98 11.1-11.08-11.1-11.1 11.1-11.08-11.1-11.09 11.98-11.98 1.77 1.77M5872.59 8204.56l-10.21 10.21 11.1 11.08-11.1 11.09 11.1 11.1-11.1 11.08 10.21 10.21-1.76 1.77-11.98-11.98 11.09-11.08-11.09-11.1 11.09-11.08-11.09-11.09 11.98-11.98 1.76 1.77M5888.74 8204.56l-10.21 10.21 11.1 11.08-11.1 11.09 11.1 11.1-11.09 11.08 10.21 10.21-1.77 1.77-11.98-11.98 11.09-11.08-11.09-11.1 11.09-11.08-11.09-11.09 11.98-11.98 1.77 1.77M5904.89 8204.56l-10.22 10.21 11.1 11.08-11.1 11.09 11.1 11.1-11.1 11.08 10.22 10.21-1.77 1.77-11.99-11.98 11.1-11.08-11.1-11.1 11.1-11.09-11.1-11.08 11.99-11.98 1.77 1.77M5921.04 8204.56l-10.23 10.21 11.12 11.09-11.12 11.08 11.12 11.1-11.12 11.08 10.23 10.21-1.77 1.77-12-11.98 11.12-11.08-11.12-11.1 11.12-11.09-11.12-11.08 12-11.98 1.77 1.77M5937.18 8204.56l-10.22 10.21 11.11 11.08-11.11 11.09 11.11 11.1-11.11 11.08 10.22 10.21-1.76 1.77-11.99-11.98 11.1-11.08-11.1-11.1 11.1-11.09-11.1-11.08 11.99-11.98 1.76 1.77M5953.31 8204.56l-10.21 10.21 11.1 11.08-11.09 11.09 11.09 11.1-11.09 11.08 10.21 10.21-1.77 1.77-11.98-11.98 11.09-11.08-11.09-11.1 11.09-11.08-11.09-11.09 11.98-11.98 1.77 1.77M5969.48 8204.56l-10.22 10.21 11.1 11.08-11.1 11.09 11.1 11.1-11.1 11.08 10.22 10.21-1.77 1.77-11.99-11.98 11.1-11.08-11.1-11.1 11.1-11.09-11.1-11.08 11.99-11.98 1.77 1.77M5985.61 8204.56l-10.21 10.21 11.09 11.08-11.09 11.09 11.09 11.1-11.09 11.08 10.21 10.21-1.77 1.77-11.98-11.98 11.1-11.08-11.1-11.1 11.1-11.08-11.1-11.09 11.98-11.98 1.77 1.77M6001.76 8204.56l-10.21 10.21 11.1 11.08-11.1 11.09 11.1 11.1-11.1 11.08 10.21 10.21-1.76 1.77-11.98-11.98 11.09-11.08-11.09-11.1 11.09-11.08-11.09-11.09 11.98-11.98 1.76 1.77M6017.9 8204.56l-10.2 10.21 11.09 11.08-11.09 11.09 11.09 11.1-11.09 11.08 10.21 10.21-1.77 1.77-11.98-11.98 11.09-11.08-11.09-11.1 11.09-11.08-11.09-11.09 11.98-11.98 1.77 1.77M6034.06 8204.56l-10.21 10.21 11.09 11.08-11.09 11.09 11.09 11.1-11.09 11.08 10.21 10.21-1.77 1.77-11.98-11.98 11.1-11.08-11.1-11.1 11.1-11.08-11.1-11.09 11.98-11.98 1.77 1.77M6050.2 8204.56l-10.21 10.21 11.09 11.08-11.09 11.09 11.09 11.1-11.09 11.08 10.21 10.21-1.77 1.77-11.98-11.98 11.1-11.08-11.1-11.1 11.1-11.08-11.1-11.09 11.98-11.98 1.77 1.77M6066.35 8204.56l-10.21 10.21 11.1 11.08-11.1 11.09 11.1 11.1-11.1 11.08 10.21 10.21-1.77 1.77-11.97-11.98 11.09-11.08-11.09-11.1 11.09-11.08-11.09-11.09 11.97-11.98 1.77 1.77M6082.49 8204.56l-10.2 10.21 11.09 11.08-11.1 11.09 11.1 11.1-11.09 11.08 10.21 10.21-1.77 1.77-11.98-11.98 11.09-11.08-11.09-11.1 11.09-11.08-11.09-11.09 11.98-11.98 1.77 1.77M6098.65 8204.56l-10.21 10.21 11.09 11.08-11.09 11.09 11.09 11.1-11.09 11.08 10.21 10.21-1.77 1.77-11.98-11.98 11.09-11.08-11.09-11.1 11.09-11.08-11.09-11.09 11.98-11.98 1.77 1.77M6114.79 8204.56l-10.21 10.21 11.09 11.08-11.09 11.09 11.09 11.1-11.09 11.08 10.21 10.21-1.77 1.77-11.98-11.98 11.1-11.08-11.1-11.1 11.1-11.08-11.1-11.09 11.98-11.98 1.77 1.77M6130.94 8204.56l-10.21 10.21 11.1 11.08-11.1 11.09 11.1 11.1-11.1 11.08 10.21 10.21-1.77 1.77-11.97-11.98 11.09-11.08-11.09-11.1 11.09-11.08-11.09-11.09 11.97-11.98 1.77 1.77"/></g><path d="M270.19 857.241H152.96a3.834 3.834 0 01-3.83-3.828 3.832 3.832 0 013.83-3.826h117.23a3.831 3.831 0 013.827 3.826 3.832 3.832 0 01-3.828 3.828zm0-8.585H152.96a4.757 4.757 0 100 9.515h117.23a4.757 4.757 0 004.757-4.758c0-2.63-2.13-4.757-4.758-4.757" fill="#2b2b2b"/><g clip-path="url(#w)" fill="#5a5a5a" transform="matrix(.13333 0 0 -.13333 -585.66 1143.615)"><path d="M5527.88 2144.17l-9.78 9.78 10.66 10.64-10.66 10.66 10.66 10.66-10.65 10.64 9.77 9.77-1.77 1.77-11.54-11.54 10.65-10.64-10.65-10.67 10.65-10.65-10.65-10.64 11.54-11.55 1.77 1.76M5543.38 2144.17l-9.77 9.78 10.66 10.64-10.66 10.66 10.66 10.66-10.66 10.64 9.77 9.77-1.76 1.77-11.54-11.54 10.65-10.64-10.65-10.67 10.65-10.65-10.65-10.64 11.54-11.55 1.76 1.76M5558.9 2144.17l-9.78 9.78 10.67 10.64-10.67 10.65 10.67 10.67-10.67 10.64 9.78 9.77-1.77 1.77-11.55-11.54 10.67-10.64-10.66-10.66 10.66-10.66-10.67-10.64 11.55-11.55 1.77 1.77M5574.41 2144.17l-9.77 9.78 10.65 10.64-10.65 10.66 10.65 10.66-10.65 10.64 9.77 9.77-1.77 1.77-11.54-11.54 10.66-10.64-10.66-10.67 10.66-10.65-10.66-10.64 11.54-11.55 1.77 1.76M5589.93 2144.17l-9.78 9.78 10.66 10.64-10.66 10.66 10.66 10.66-10.66 10.64 9.78 9.77-1.77 1.77-11.55-11.54 10.66-10.64-10.66-10.66 10.66-10.66-10.66-10.64 11.55-11.55 1.77 1.77M5605.43 2144.17l-9.77 9.78 10.66 10.64-10.66 10.66 10.66 10.66-10.66 10.64 9.77 9.77-1.76 1.77-11.54-11.54 10.65-10.64-10.65-10.67 10.65-10.65-10.65-10.64 11.54-11.55 1.77 1.76M5620.95 2144.17l-9.78 9.78 10.67 10.64-10.67 10.66 10.67 10.66-10.67 10.64 9.78 9.77-1.76 1.77-11.56-11.54 10.67-10.64-10.66-10.66 10.66-10.66-10.67-10.64 11.55-11.55 1.77 1.77M5636.46 2144.17l-9.77 9.78 10.65 10.64-10.65 10.66 10.65 10.66-10.65 10.64 9.77 9.77-1.77 1.77-11.54-11.54 10.66-10.64-10.66-10.67 10.66-10.65-10.66-10.64 11.54-11.55 1.77 1.76M5651.98 2144.17l-9.78 9.78 10.66 10.64-10.66 10.65 10.66 10.67-10.66 10.64 9.78 9.77-1.77 1.77-11.55-11.54 10.66-10.64-10.66-10.66 10.66-10.66-10.66-10.64 11.55-11.55 1.77 1.77M5667.49 2144.17l-9.78 9.78 10.66 10.64-10.66 10.65 10.66 10.67-10.66 10.64 9.77 9.77-1.76 1.77-11.55-11.54 10.66-10.64-10.66-10.66 10.66-10.66-10.66-10.64 11.55-11.55 1.77 1.77M5682.99 2144.17l-9.77 9.78 10.66 10.64-10.66 10.66 10.66 10.66-10.66 10.64 9.77 9.77-1.76 1.77-11.54-11.54 10.65-10.64-10.65-10.67 10.65-10.65-10.65-10.64 11.53-11.55 1.77 1.76M5698.51 2144.17l-9.78 9.78 10.67 10.64-10.67 10.66 10.67 10.66-10.67 10.64 9.78 9.77-1.77 1.77-11.55-11.54 10.67-10.64-10.67-10.66 10.67-10.66-10.67-10.64 11.55-11.55 1.77 1.77M5714.02 2144.17l-9.77 9.78 10.65 10.64-10.65 10.66 10.65 10.66-10.65 10.64 9.77 9.77-1.77 1.77-11.54-11.54 10.66-10.64-10.66-10.67 10.66-10.65-10.66-10.64 11.54-11.55 1.77 1.76M5729.54 2144.17l-9.78 9.78 10.66 10.64-10.66 10.66 10.66 10.66-10.66 10.64 9.78 9.77-1.77 1.77-11.55-11.54 10.66-10.64-10.66-10.66 10.66-10.66-10.66-10.64 11.55-11.55 1.77 1.77M5745.04 2144.17l-9.77 9.78 10.66 10.64-10.66 10.66 10.66 10.66-10.66 10.64 9.77 9.77-1.76 1.77-11.54-11.54 10.65-10.64-10.65-10.67 10.65-10.65-10.65-10.64 11.54-11.55 1.76 1.76M5760.56 2144.17l-9.78 9.78 10.67 10.64-10.67 10.65 10.67 10.67-10.67 10.64 9.78 9.77-1.77 1.77-11.55-11.54 10.67-10.64-10.66-10.66 10.66-10.66-10.67-10.64 11.55-11.55 1.77 1.77M5776.07 2144.17l-9.77 9.78 10.65 10.64-10.65 10.66 10.65 10.66-10.65 10.64 9.77 9.77-1.77 1.77-11.54-11.54 10.66-10.64-10.66-10.67 10.66-10.65-10.66-10.64 11.54-11.55 1.77 1.76M5791.58 2144.17l-9.77 9.78 10.65 10.64-10.65 10.66 10.65 10.66-10.65 10.64 9.77 9.77-1.77 1.77-11.54-11.54 10.66-10.64-10.66-10.67 10.65-10.65-10.65-10.64 11.54-11.55 1.77 1.76M5807.09 2144.17l-9.77 9.78 10.66 10.64-10.67 10.66 10.67 10.66-10.66 10.64 9.77 9.77-1.76 1.77-11.55-11.54 10.66-10.64-10.66-10.66 10.66-10.66-10.66-10.64 11.55-11.55 1.77 1.77M5822.6 2144.17l-9.77 9.78 10.66 10.64-10.66 10.66 10.66 10.66-10.66 10.64 9.77 9.77-1.77 1.77-11.53-11.54 10.65-10.64-10.65-10.67 10.65-10.65-10.65-10.64 11.53-11.55 1.77 1.76"/><path d="M5520.25 2144.17l-9.77 9.78 10.65 10.64-10.65 10.66 10.65 10.66-10.65 10.64 9.77 9.77-1.77 1.77-11.54-11.54 10.66-10.64-10.66-10.67 10.66-10.65-10.66-10.64 11.54-11.55 1.77 1.76M5535.77 2144.17l-9.78 9.78 10.66 10.64-10.66 10.66 10.66 10.66-10.66 10.64 9.78 9.77-1.77 1.77-11.55-11.54 10.66-10.64-10.66-10.66 10.66-10.66-10.66-10.64 11.55-11.55 1.77 1.77M5551.27 2144.17l-9.77 9.78 10.66 10.64-10.66 10.66 10.66 10.66-10.66 10.64 9.77 9.77-1.76 1.77-11.54-11.54 10.65-10.64-10.65-10.67 10.65-10.65-10.65-10.64 11.54-11.55 1.77 1.76M5566.78 2144.17l-9.77 9.78 10.66 10.64-10.66 10.66 10.66 10.66-10.66 10.64 9.77 9.77-1.77 1.77-11.53-11.54 10.65-10.64-10.65-10.67 10.65-10.65-10.65-10.64 11.53-11.55 1.77 1.76M5582.3 2144.17l-9.78 9.78 10.66 10.64-10.66 10.66 10.66 10.66-10.66 10.64 9.78 9.77-1.77 1.77-11.55-11.54 10.67-10.64-10.67-10.66 10.67-10.66-10.67-10.64 11.55-11.55 1.77 1.77M5597.81 2144.17l-9.77 9.78 10.65 10.64-10.65 10.66 10.65 10.66-10.65 10.64 9.77 9.77-1.77 1.77-11.54-11.54 10.66-10.64-10.66-10.67 10.66-10.65-10.66-10.64 11.54-11.55 1.77 1.76M5613.33 2144.17l-9.78 9.78 10.66 10.64-10.67 10.66 10.67 10.66-10.66 10.64 9.77 9.77-1.76 1.77-11.55-11.54 10.66-10.64-10.66-10.66 10.66-10.66-10.66-10.64 11.55-11.55 1.77 1.77M5628.83 2144.17l-9.77 9.78 10.66 10.64-10.66 10.66 10.66 10.66-10.66 10.64 9.77 9.77-1.76 1.77-11.54-11.54 10.65-10.64-10.65-10.67 10.65-10.65-10.65-10.64 11.53-11.55 1.77 1.76M5644.35 2144.17l-9.78 9.78 10.66 10.64-10.66 10.66 10.67 10.66-10.67 10.64 9.78 9.77-1.77 1.77-11.55-11.54 10.67-10.64-10.67-10.66 10.67-10.66-10.67-10.64 11.55-11.55 1.77 1.77M5659.88 2144.17l-9.79 9.77 10.67 10.65-10.67 10.65 10.67 10.67-10.67 10.64 9.79 9.77-1.77 1.77-11.56-11.54 10.67-10.64-10.67-10.67 10.67-10.65-10.67-10.64 11.56-11.55 1.77 1.77M5675.38 2144.17l-9.78 9.78 10.66 10.64-10.66 10.65 10.66 10.67-10.66 10.64 9.78 9.77-1.77 1.77-11.55-11.54 10.66-10.64-10.66-10.66 10.66-10.66-10.66-10.64 11.55-11.55 1.77 1.77M5690.89 2144.17l-9.78 9.77 10.67 10.65-10.68 10.65 10.68 10.67-10.67 10.64 9.78 9.77-1.76 1.77-11.56-11.54 10.67-10.64-10.67-10.67 10.67-10.65-10.67-10.64 11.56-11.55 1.76 1.77M5706.39 2144.16l-9.76 9.78 10.65 10.65-10.65 10.66 10.64 10.66-10.64 10.64 9.76 9.77-1.77 1.77-11.52-11.54 10.64-10.64-10.64-10.67 10.64-10.65-10.64-10.64 11.52-11.55 1.77 1.76M5721.92 2144.17l-9.79 9.77 10.67 10.65-10.67 10.65 10.67 10.67-10.67 10.64 9.79 9.77-1.77 1.77-11.56-11.54 10.68-10.64-10.68-10.67 10.68-10.65-10.68-10.64 11.56-11.55 1.77 1.77M5737.42 2144.16l-9.76 9.78 10.64 10.65-10.65 10.66 10.65 10.66-10.64 10.64 9.76 9.77-1.77 1.77-11.53-11.54 10.65-10.64-10.65-10.67 10.65-10.65-10.65-10.64 11.53-11.55 1.77 1.76M5752.94 2144.16l-9.77 9.78 10.65 10.65-10.65 10.65 10.65 10.67-10.65 10.64 9.76 9.77-1.76 1.77-11.53-11.54 10.64-10.64-10.64-10.67 10.64-10.65-10.64-10.64 11.53-11.55 1.77 1.76M5768.46 2144.17l-9.79 9.77 10.68 10.65-10.68 10.65 10.68 10.67-10.68 10.64 9.79 9.77-1.76 1.77-11.57-11.54 10.68-10.64-10.68-10.67 10.68-10.65-10.68-10.64 11.56-11.55 1.77 1.77M5783.97 2144.17l-9.77 9.78 10.65 10.64-10.65 10.66 10.65 10.66-10.65 10.64 9.77 9.77-1.77 1.77-11.54-11.54 10.66-10.64-10.66-10.67 10.66-10.65-10.66-10.64 11.54-11.55 1.77 1.76M5799.47 2144.17l-9.77 9.78 10.65 10.64-10.65 10.66 10.65 10.66-10.65 10.64 9.77 9.77-1.77 1.77-11.54-11.54 10.66-10.64-10.66-10.67 10.66-10.65-10.66-10.64 11.54-11.55 1.77 1.76M5814.98 2144.17l-9.78 9.78 10.66 10.64-10.66 10.66 10.66 10.66-10.65 10.64 9.77 9.77-1.77 1.77-11.54-11.54 10.65-10.64-10.65-10.67 10.65-10.65-10.65-10.64 11.54-11.55 1.77 1.76M5837.51 2144.17l-9.78 9.78 10.67 10.64-10.67 10.66 10.67 10.66-10.67 10.64 9.78 9.77-1.76 1.77-11.55-11.54 10.66-10.64-10.66-10.66 10.66-10.66-10.66-10.64 11.55-11.55 1.77 1.77M5853.02 2144.17l-9.77 9.78 10.66 10.64-10.66 10.66 10.66 10.66-10.66 10.64 9.77 9.77-1.77 1.77-11.53-11.54 10.65-10.64-10.65-10.67 10.65-10.65-10.65-10.64 11.53-11.55 1.77 1.76M5868.54 2144.17l-9.78 9.78 10.66 10.64-10.66 10.65 10.67 10.67-10.67 10.64 9.78 9.77-1.77 1.77-11.55-11.54 10.67-10.64-10.67-10.66 10.67-10.66-10.67-10.64 11.55-11.55 1.77 1.77M5884.05 2144.17l-9.78 9.78 10.66 10.64-10.66 10.65 10.66 10.67-10.66 10.64 9.78 9.77-1.77 1.77-11.55-11.54 10.66-10.64-10.66-10.66 10.66-10.66-10.66-10.64 11.55-11.55 1.77 1.77M5899.56 2144.17l-9.78 9.78 10.66 10.64-10.66 10.66 10.66 10.66-10.65 10.64 9.77 9.77-1.77 1.77-11.54-11.54 10.65-10.64-10.65-10.67 10.65-10.65-10.65-10.64 11.54-11.55 1.77 1.76M5915.07 2144.17l-9.78 9.78 10.67 10.64-10.67 10.66 10.67 10.66-10.67 10.64 9.78 9.77-1.76 1.77-11.55-11.54 10.66-10.64-10.66-10.66 10.66-10.66-10.66-10.64 11.55-11.55 1.76 1.77M5930.58 2144.17l-9.77 9.78 10.66 10.64-10.66 10.66 10.65 10.66-10.65 10.64 9.77 9.77-1.77 1.77-11.54-11.54 10.66-10.64-10.65-10.67 10.65-10.65-10.65-10.64 11.53-11.55 1.77 1.76M5946.1 2144.17l-9.78 9.78 10.66 10.64-10.66 10.66 10.66 10.66-10.66 10.64 9.78 9.77-1.77 1.77-11.55-11.54 10.67-10.64-10.67-10.66 10.67-10.66-10.67-10.64 11.55-11.55 1.77 1.77M5961.61 2144.17l-9.78 9.78 10.66 10.64-10.66 10.66 10.66 10.66-10.65 10.64 9.77 9.77-1.77 1.77-11.54-11.54 10.65-10.64-10.65-10.67 10.65-10.65-10.65-10.64 11.54-11.55 1.77 1.76M5977.12 2144.17l-9.78 9.78 10.67 10.64-10.67 10.65 10.67 10.67-10.67 10.64 9.78 9.77-1.76 1.77-11.55-11.54 10.66-10.64-10.66-10.66 10.66-10.66-10.66-10.64 11.55-11.55 1.76 1.77M5992.63 2144.17l-9.77 9.78 10.66 10.64-10.66 10.66 10.66 10.66-10.66 10.64 9.77 9.77-1.77 1.77-11.54-11.54 10.66-10.64-10.65-10.67 10.65-10.65-10.65-10.64 11.53-11.55 1.77 1.76M6008.14 2144.17l-9.77 9.78 10.65 10.64-10.65 10.66 10.65 10.66-10.65 10.64 9.77 9.77-1.77 1.77-11.54-11.54 10.66-10.64-10.66-10.67 10.66-10.65-10.66-10.64 11.54-11.55 1.77 1.76M6023.66 2144.17l-9.78 9.78 10.66 10.64-10.66 10.66 10.66 10.66-10.66 10.64 9.78 9.77-1.77 1.77-11.55-11.54 10.66-10.64-10.66-10.66 10.66-10.66-10.66-10.64 11.55-11.55 1.77 1.77M6039.17 2144.17l-9.78 9.78 10.66 10.64-10.66 10.66 10.66 10.66-10.65 10.64 9.77 9.77-1.77 1.77-11.54-11.54 10.65-10.64-10.65-10.67 10.65-10.65-10.65-10.64 11.54-11.55 1.77 1.76M6054.68 2144.17l-9.78 9.78 10.67 10.64-10.67 10.66 10.67 10.66-10.67 10.64 9.78 9.77-1.76 1.77-11.55-11.54 10.66-10.64-10.66-10.66 10.66-10.66-10.66-10.64 11.54-11.55 1.77 1.77M6070.19 2144.17l-9.77 9.78 10.65 10.64-10.65 10.66 10.65 10.66-10.65 10.64 9.77 9.77-1.77 1.77-11.54-11.54 10.66-10.64-10.66-10.67 10.66-10.65-10.66-10.64 11.54-11.55 1.77 1.76M6085.71 2144.17l-9.78 9.78 10.66 10.64-10.66 10.65 10.66 10.67-10.66 10.64 9.78 9.77-1.77 1.77-11.55-11.54 10.66-10.64-10.66-10.66 10.66-10.66-10.66-10.64 11.55-11.55 1.77 1.77M6101.22 2144.17l-9.78 9.78 10.66 10.64-10.66 10.66 10.66 10.66-10.65 10.64 9.77 9.77-1.77 1.77-11.54-11.54 10.65-10.64-10.65-10.67 10.65-10.65-10.65-10.64 11.54-11.55 1.77 1.76M6116.73 2144.17l-9.78 9.78 10.67 10.64-10.67 10.65 10.67 10.67-10.67 10.64 9.78 9.77-1.76 1.77-11.55-11.54 10.66-10.64-10.66-10.66 10.66-10.66-10.66-10.64 11.55-11.55 1.76 1.77M6132.24 2144.17l-9.78 9.78 10.67 10.64-10.67 10.66 10.67 10.66-10.67 10.64 9.78 9.77-1.77 1.77-11.55-11.54 10.67-10.64-10.66-10.66 10.66-10.66-10.67-10.64 11.55-11.55 1.77 1.77"/><path d="M5829.89 2144.17l-9.78 9.78 10.66 10.64-10.66 10.66 10.66 10.66-10.66 10.64 9.78 9.77-1.77 1.77-11.55-11.54 10.66-10.64-10.66-10.66 10.67-10.66-10.67-10.64 11.55-11.55 1.77 1.77M5845.4 2144.17l-9.78 9.78 10.66 10.64-10.66 10.66 10.66 10.66-10.65 10.64 9.77 9.77-1.77 1.77-11.54-11.54 10.65-10.64-10.65-10.67 10.65-10.65-10.65-10.64 11.54-11.55 1.77 1.76M5860.91 2144.17l-9.78 9.78 10.67 10.64-10.67 10.66 10.67 10.66-10.67 10.64 9.78 9.77-1.76 1.77-11.55-11.54 10.66-10.64-10.66-10.66 10.66-10.66-10.66-10.64 11.54-11.55 1.77 1.77M5876.42 2144.17l-9.77 9.78 10.65 10.64-10.65 10.66 10.65 10.66-10.65 10.64 9.77 9.77-1.77 1.77-11.54-11.54 10.66-10.64-10.65-10.67 10.65-10.65-10.65-10.64 11.53-11.55 1.77 1.76M5891.94 2144.17l-9.78 9.78 10.66 10.64-10.66 10.65 10.66 10.67-10.66 10.64 9.78 9.77-1.77 1.77-11.55-11.54 10.66-10.64-10.66-10.66 10.67-10.66-10.67-10.64 11.55-11.55 1.77 1.77M5907.45 2144.17l-9.78 9.78 10.66 10.64-10.66 10.66 10.66 10.66-10.66 10.64 9.78 9.77-1.77 1.77-11.55-11.54 10.66-10.64-10.66-10.66 10.66-10.66-10.66-10.64 11.55-11.55 1.77 1.77M5922.95 2144.17l-9.77 9.78 10.66 10.64-10.66 10.66 10.66 10.66-10.66 10.64 9.77 9.77-1.76 1.77-11.54-11.54 10.65-10.64-10.65-10.67 10.65-10.65-10.65-10.64 11.54-11.55 1.76 1.76M5938.47 2144.17l-9.78 9.78 10.67 10.64-10.67 10.66 10.67 10.66-10.67 10.64 9.78 9.77-1.77 1.77-11.55-11.54 10.67-10.64-10.66-10.66 10.66-10.66-10.67-10.64 11.55-11.55 1.77 1.77M5953.98 2144.17l-9.77 9.78 10.65 10.64-10.65 10.66 10.65 10.66-10.65 10.64 9.77 9.77-1.77 1.77-11.54-11.54 10.66-10.64-10.66-10.67 10.66-10.65-10.66-10.64 11.54-11.55 1.77 1.76M5969.5 2144.17l-9.78 9.78 10.66 10.64-10.66 10.65 10.66 10.67-10.66 10.64 9.78 9.77-1.77 1.77-11.55-11.54 10.66-10.64-10.66-10.66 10.66-10.66-10.66-10.64 11.55-11.55 1.77 1.77M5985 2144.17l-9.77 9.78 10.66 10.64-10.66 10.66 10.66 10.66-10.66 10.64 9.77 9.77-1.76 1.77-11.54-11.54 10.65-10.64-10.65-10.67 10.65-10.65-10.65-10.64 11.54-11.55 1.77 1.76M6000.52 2144.17l-9.78 9.78 10.67 10.64-10.67 10.65 10.67 10.67-10.67 10.64 9.78 9.77-1.76 1.77-11.55-11.54 10.66-10.64-10.66-10.66 10.66-10.66-10.66-10.64 11.54-11.55 1.77 1.77M6016.03 2144.17l-9.77 9.78 10.65 10.64-10.65 10.66 10.65 10.66-10.65 10.64 9.77 9.77-1.77 1.77-11.54-11.54 10.66-10.64-10.66-10.67 10.66-10.65-10.66-10.64 11.54-11.55 1.77 1.76M6031.54 2144.17l-9.77 9.78 10.65 10.64-10.65 10.66 10.65 10.66-10.65 10.64 9.77 9.77-1.77 1.77-11.54-11.54 10.66-10.64-10.66-10.67 10.66-10.65-10.66-10.64 11.54-11.55 1.77 1.76M6047.06 2144.17l-9.78 9.78 10.66 10.64-10.67 10.66 10.67 10.66-10.66 10.64 9.78 9.77-1.77 1.77-11.55-11.54 10.66-10.64-10.66-10.66 10.66-10.66-10.66-10.64 11.55-11.55 1.77 1.77M6062.56 2144.16l-9.76 9.78 10.65 10.65-10.65 10.66 10.65 10.66-10.65 10.64 9.76 9.77-1.76 1.77-11.53-11.54 10.64-10.64-10.64-10.67 10.64-10.65-10.64-10.64 11.52-11.55 1.77 1.76M6078.09 2144.17l-9.79 9.77 10.68 10.65-10.68 10.66 10.68 10.66-10.68 10.64 9.79 9.77-1.77 1.77-11.56-11.54 10.68-10.64-10.68-10.67 10.68-10.65-10.68-10.64 11.56-11.55 1.77 1.77M6093.59 2144.16l-9.76 9.78 10.64 10.65-10.64 10.66 10.64 10.66-10.64 10.64 9.76 9.77-1.77 1.77-11.53-11.54 10.65-10.64-10.65-10.67 10.65-10.65-10.65-10.64 11.53-11.55 1.77 1.76M6109.11 2144.17l-9.78 9.78 10.66 10.64-10.66 10.65 10.66 10.67-10.66 10.64 9.78 9.77-1.77 1.77-11.55-11.54 10.66-10.64-10.66-10.66 10.66-10.66-10.66-10.64 11.55-11.55 1.77 1.77M6124.61 2144.17l-9.77 9.78 10.66 10.64-10.66 10.66 10.66 10.66-10.66 10.64 9.77 9.77-1.76 1.77-11.54-11.54 10.65-10.64-10.65-10.67 10.65-10.65-10.65-10.64 11.54-11.55 1.76 1.76M6147.32 2144.17l-9.77 9.78 10.65 10.64-10.65 10.66 10.65 10.66-10.65 10.64 9.77 9.77-1.77 1.77-11.54-11.54 10.66-10.64-10.66-10.67 10.66-10.65-10.66-10.64 11.54-11.55 1.77 1.76M6162.83 2144.17l-9.78 9.78 10.66 10.64-10.66 10.66 10.66 10.66-10.66 10.64 9.78 9.77-1.77 1.77-11.55-11.54 10.66-10.64-10.66-10.66 10.66-10.66-10.66-10.64 11.55-11.55 1.77 1.77M6178.33 2144.16l-9.77 9.78 10.65 10.65-10.65 10.65 10.65 10.67-10.65 10.64 9.77 9.77-1.77 1.77-11.53-11.54 10.64-10.64-10.64-10.67 10.64-10.65-10.64-10.64 11.53-11.55 1.77 1.76M6193.85 2144.17l-9.79 9.77 10.68 10.65-10.68 10.65 10.68 10.67-10.68 10.64 9.79 9.77-1.76 1.77-11.57-11.54 10.68-10.64-10.67-10.67 10.67-10.65-10.68-10.64 11.56-11.55 1.77 1.77M6209.37 2144.17l-9.78 9.78 10.66 10.64-10.66 10.66 10.67 10.66-10.67 10.64 9.78 9.77-1.77 1.77-11.55-11.54 10.67-10.64-10.67-10.66 10.67-10.66-10.67-10.64 11.55-11.55 1.77 1.77M6224.88 2144.17l-9.77 9.78 10.65 10.64-10.65 10.66 10.65 10.66-10.65 10.64 9.77 9.77-1.77 1.77-11.54-11.54 10.66-10.64-10.66-10.67 10.66-10.65-10.66-10.64 11.54-11.55 1.77 1.76M6240.4 2144.17l-9.78 9.78 10.66 10.64-10.66 10.65 10.66 10.67-10.66 10.64 9.77 9.77-1.76 1.77-11.55-11.54 10.66-10.64-10.66-10.66 10.66-10.66-10.66-10.64 11.55-11.55 1.77 1.77M6255.9 2144.17l-9.77 9.78 10.66 10.64-10.66 10.66 10.66 10.66-10.66 10.64 9.77 9.77-1.76 1.77-11.54-11.54 10.65-10.64-10.65-10.67 10.65-10.65-10.65-10.64 11.54-11.55 1.76 1.76M6271.42 2144.17l-9.78 9.78 10.67 10.64-10.67 10.65 10.67 10.67-10.67 10.64 9.78 9.77-1.77 1.77-11.55-11.54 10.67-10.64-10.67-10.66 10.67-10.66-10.67-10.64 11.55-11.55 1.77 1.77M6286.93 2144.17l-9.78 9.78 10.66 10.64-10.66 10.66 10.66 10.66-10.66 10.64 9.78 9.77-1.77 1.77-11.55-11.54 10.67-10.64-10.67-10.66 10.67-10.66-10.67-10.64 11.55-11.55 1.77 1.77M6302.44 2144.17l-9.78 9.78 10.66 10.64-10.66 10.66 10.66 10.66-10.65 10.64 9.77 9.77-1.77 1.77-11.54-11.54 10.65-10.64-10.65-10.67 10.65-10.65-10.65-10.64 11.54-11.55 1.77 1.76M6317.95 2144.17l-9.78 9.78 10.67 10.64-10.67 10.66 10.67 10.66-10.67 10.64 9.78 9.77-1.76 1.77-11.55-11.54 10.66-10.64-10.66-10.66 10.66-10.66-10.66-10.64 11.55-11.55 1.76 1.77M6333.46 2144.17l-9.77 9.78 10.66 10.64-10.66 10.66 10.66 10.66-10.66 10.64 9.77 9.77-1.77 1.77-11.53-11.54 10.65-10.64-10.65-10.67 10.65-10.65-10.65-10.64 11.53-11.55 1.77 1.76M6348.98 2144.17l-9.78 9.78 10.66 10.64-10.66 10.65 10.66 10.67-10.66 10.64 9.78 9.77-1.77 1.77-11.55-11.54 10.67-10.64-10.67-10.66 10.67-10.66-10.67-10.64 11.55-11.55 1.77 1.77M6364.49 2144.17l-9.77 9.78 10.65 10.64-10.65 10.66 10.65 10.66-10.65 10.64 9.77 9.77-1.77 1.77-11.54-11.54 10.66-10.64-10.66-10.67 10.65-10.65-10.65-10.64 11.54-11.55 1.77 1.76M6380 2144.17l-9.77 9.78 10.66 10.64-10.67 10.65 10.67 10.67-10.66 10.64 9.77 9.77-1.76 1.77-11.55-11.54 10.66-10.64-10.66-10.66 10.66-10.66-10.66-10.64 11.55-11.55 1.77 1.77M6395.51 2144.17l-9.77 9.78 10.66 10.64-10.66 10.66 10.66 10.66-10.66 10.64 9.77 9.77-1.76 1.77-11.54-11.54 10.65-10.64-10.65-10.67 10.65-10.65-10.65-10.64 11.53-11.55 1.77 1.76M6411.02 2144.17l-9.77 9.78 10.65 10.64-10.65 10.66 10.65 10.66-10.65 10.64 9.77 9.77-1.77 1.77-11.54-11.54 10.66-10.64-10.66-10.67 10.66-10.65-10.66-10.64 11.54-11.55 1.77 1.76M6426.54 2144.17l-9.78 9.78 10.66 10.64-10.66 10.66 10.66 10.66-10.66 10.64 9.78 9.77-1.77 1.77-11.55-11.54 10.66-10.64-10.66-10.66 10.67-10.66-10.67-10.64 11.55-11.55 1.77 1.77M6442.05 2144.17l-9.78 9.78 10.66 10.64-10.66 10.66 10.66 10.66-10.65 10.64 9.77 9.77-1.77 1.77-11.54-11.54 10.65-10.64-10.65-10.67 10.65-10.65-10.65-10.64 11.54-11.55 1.77 1.76"/><path d="M6139.69 2144.17l-9.77 9.78 10.66 10.64-10.66 10.66 10.66 10.66-10.66 10.64 9.77 9.77-1.77 1.77-11.53-11.54 10.65-10.64-10.65-10.67 10.65-10.65-10.65-10.64 11.53-11.55 1.77 1.76M6155.21 2144.17l-9.78 9.78 10.66 10.64-10.66 10.65 10.66 10.67-10.66 10.64 9.78 9.77-1.77 1.77-11.55-11.54 10.67-10.64-10.67-10.66 10.67-10.66-10.67-10.64 11.55-11.55 1.77 1.77M6170.72 2144.17l-9.77 9.78 10.65 10.64-10.65 10.66 10.65 10.66-10.65 10.64 9.77 9.77-1.77 1.77-11.54-11.54 10.66-10.64-10.66-10.67 10.66-10.65-10.66-10.64 11.54-11.55 1.77 1.76M6186.23 2144.17l-9.78 9.78 10.66 10.64-10.66 10.66 10.66 10.66-10.65 10.64 9.77 9.77-1.77 1.77-11.54-11.54 10.65-10.64-10.65-10.67 10.65-10.65-10.65-10.64 11.54-11.55 1.77 1.76M6201.74 2144.17l-9.78 9.78 10.67 10.64-10.67 10.66 10.67 10.66-10.67 10.64 9.78 9.77-1.76 1.77-11.55-11.54 10.66-10.64-10.66-10.66 10.66-10.66-10.66-10.64 11.54-11.55 1.77 1.77M6217.25 2144.17l-9.77 9.78 10.66 10.64-10.66 10.66 10.65 10.66-10.65 10.64 9.77 9.77-1.77 1.77-11.54-11.54 10.66-10.64-10.65-10.67 10.65-10.65-10.65-10.64 11.53-11.55 1.77 1.76M6232.77 2144.17l-9.78 9.78 10.66 10.64-10.66 10.65 10.66 10.67-10.66 10.64 9.78 9.77-1.77 1.77-11.55-11.54 10.66-10.64-10.66-10.66 10.67-10.66-10.67-10.64 11.55-11.55 1.77 1.77M6248.28 2144.17l-9.78 9.78 10.66 10.64-10.66 10.66 10.66 10.66-10.65 10.64 9.77 9.77-1.77 1.77-11.54-11.54 10.65-10.64-10.65-10.67 10.65-10.65-10.65-10.64 11.54-11.55 1.77 1.76M6263.79 2144.17l-9.78 9.78 10.67 10.64-10.67 10.65 10.67 10.67-10.67 10.64 9.78 9.77-1.76 1.77-11.55-11.54 10.66-10.64-10.66-10.66 10.66-10.66-10.66-10.64 11.55-11.55 1.76 1.77M6279.32 2144.17l-9.79 9.77 10.68 10.65-10.68 10.66 10.68 10.66-10.68 10.64 9.79 9.77-1.77 1.77-11.56-11.54 10.68-10.64-10.68-10.67 10.68-10.65-10.68-10.64 11.56-11.55 1.77 1.77M6294.82 2144.17l-9.78 9.78 10.66 10.64-10.66 10.65 10.66 10.67-10.66 10.64 9.78 9.77-1.77 1.77-11.55-11.54 10.67-10.64-10.67-10.66 10.67-10.66-10.67-10.64 11.55-11.55 1.77 1.77M6310.33 2144.17l-9.78 9.78 10.66 10.64-10.66 10.66 10.66 10.66-10.66 10.64 9.78 9.77-1.77 1.77-11.55-11.54 10.66-10.64-10.66-10.66 10.66-10.66-10.66-10.64 11.55-11.55 1.77 1.77M6325.83 2144.17l-9.77 9.78 10.66 10.64-10.66 10.66 10.66 10.66-10.66 10.64 9.77 9.77-1.76 1.77-11.54-11.54 10.65-10.64-10.65-10.67 10.65-10.65-10.65-10.64 11.54-11.55 1.77 1.76M6341.35 2144.17l-9.78 9.78 10.67 10.64-10.67 10.65 10.67 10.67-10.67 10.64 9.78 9.77-1.76 1.77-11.55-11.54 10.66-10.64-10.66-10.66 10.66-10.66-10.66-10.64 11.54-11.55 1.77 1.77M6356.86 2144.17l-9.77 9.78 10.65 10.64-10.65 10.66 10.65 10.66-10.65 10.64 9.77 9.77-1.77 1.77-11.54-11.54 10.66-10.64-10.66-10.67 10.66-10.65-10.66-10.64 11.54-11.55 1.77 1.76M6372.38 2144.17l-9.78 9.78 10.66 10.64-10.66 10.65 10.66 10.67-10.66 10.64 9.78 9.77-1.77 1.77-11.55-11.54 10.66-10.64-10.66-10.66 10.66-10.66-10.66-10.64 11.55-11.55 1.77 1.77M6387.89 2144.17l-9.78 9.78 10.66 10.64-10.66 10.66 10.66 10.66-10.65 10.64 9.77 9.77-1.77 1.77-11.54-11.54 10.65-10.64-10.65-10.67 10.65-10.65-10.65-10.64 11.54-11.55 1.77 1.76M6403.4 2144.17l-9.78 9.78 10.67 10.64-10.67 10.65 10.67 10.67-10.67 10.64 9.78 9.77-1.76 1.77-11.55-11.54 10.66-10.64-10.66-10.66 10.66-10.66-10.66-10.64 11.55-11.55 1.76 1.77M6418.91 2144.17l-9.78 9.78 10.67 10.64-10.67 10.66 10.67 10.66-10.67 10.64 9.78 9.77-1.77 1.77-11.55-11.54 10.67-10.64-10.66-10.66 10.66-10.66-10.67-10.64 11.55-11.55 1.77 1.77M6434.42 2144.17l-9.77 9.78 10.65 10.64-10.65 10.66 10.65 10.66-10.65 10.64 9.77 9.77-1.77 1.77-11.54-11.54 10.66-10.64-10.66-10.67 10.66-10.65-10.66-10.64 11.54-11.55 1.77 1.76"/></g></svg>