<svg xmlns="http://www.w3.org/2000/svg" xmlns:xlink="http://www.w3.org/1999/xlink" width="100" height="100"><defs><radialGradient id="d" cx="51.518" cy="130.841" r="40.496" gradientTransform="matrix(.796 0 0 -.796 163.521 110.482)" gradientUnits="userSpaceOnUse"><stop offset=".004" stop-color="#f98b25"/><stop offset="1" stop-color="#e63d00"/></radialGradient><radialGradient id="b" cx="63.873" cy="124.392" r="30.318" gradientTransform="matrix(1 0 0 -1 0 130)" gradientUnits="userSpaceOnUse"><stop offset=".004" stop-color="#f98b25"/><stop offset="1" stop-color="#e63d00"/></radialGradient><linearGradient id="c" gradientUnits="userSpaceOnUse" x1="64.001" y1="37.42" x2="64.001" y2="114.243" gradientTransform="matrix(1 0 0 -1 -.001 129.999)"><stop offset="0" stop-color="#cca47a"/><stop offset=".5" stop-color="#e0bb95"/></linearGradient><path id="a" d="M4 4h120v120H4z"/></defs><clipPath id="e"><use xlink:href="#a" width="100%" height="100%"/></clipPath><linearGradient id="m" x1="78.493" x2="72.16" y1="106.73" y2="133.39" gradientUnits="userSpaceOnUse"><stop stop-color="#212121" stop-opacity=".2" offset=".002"/><stop stop-color="#212121" stop-opacity=".6" offset="1"/></linearGradient><path d="M46.69 119.76s-6.8-.35-10.21-5.09c-7.37-10.23-11.42-35.81-11.42-72.02 0-1.66.26-16.41 10.66-26.83 6.75-6.77 16.35-10.2 28.52-10.2 12.08 0 21.52 3.38 28.05 10.04 9.82 10.02 10.04 24.16 9.99 26.89 0 36.31-4.06 61.89-11.42 72.12-3.3 4.59-9.79 5.06-10.25 5.09l-16.93-.03z" fill="url(#b)" transform="translate(-3.536 -3.436) scale(.83389)"/><path d="M50.033 2.502c9.724 0 17.295 2.693 22.499 7.997 8.005 8.172 7.997 20.18 7.972 21.522v.1c0 29.937-3.303 51.01-9.29 59.332-2.368 3.285-7.13 3.694-7.572 3.719l-14.092-.025-14.085.025c-.45-.034-5.203-.442-7.571-3.72-5.988-8.322-9.29-29.386-9.29-59.347 0-.526.067-12.992 8.522-21.473 5.396-5.387 13.1-8.13 22.907-8.13m0-2.502C15.836 0 16.111 31.621 16.111 32.121c0 20.48 1.567 49.408 9.765 60.79 3.252 4.512 9.53 4.762 9.53 4.762l14.152-.025 14.151.025s6.28-.25 9.531-4.761c8.198-11.383 9.765-40.31 9.765-60.79C82.997 31.621 84.231 0 50.033 0z" fill="#c23b00"/><path d="M49.141 85.982c-3.335 0-6.054-2.685-6.054-5.979v-7.488h13.476v7.488c0 3.303-2.719 5.98-6.054 5.98z" fill="#c48e6a"/><path d="M55.737 73.349v6.654c0 2.836-2.343 5.145-5.22 5.145h-1.376c-2.877 0-5.22-2.31-5.22-5.145V73.35h11.816m1.668-1.668H42.262v8.322c0 3.761 3.085 6.813 6.887 6.813h1.376c3.803 0 6.888-3.052 6.888-6.813v-8.322z" fill="#b07853"/><path d="M64 93.14c-2.3 0-4.91-.5-7.56-1.43C45.1 87.7 31.87 75.37 31.87 53.82c0-28.72 17.31-38.91 32.13-38.91 14.82 0 32.13 10.19 32.13 38.91 0 21.58-13.26 33.9-24.61 37.9-2.64.93-5.24 1.42-7.52 1.42z" fill="url(#c)" transform="translate(-3.536 -3.436) scale(.83389)"/><path d="M49.833 9.832c7.013 0 13.392 2.71 17.97 7.63 5.229 5.612 7.99 13.909 7.99 23.99 0 17.562-10.758 27.577-19.964 30.821-2.11.742-4.178 1.134-5.996 1.134-1.826 0-3.91-.4-6.029-1.15-9.198-3.253-19.93-13.276-19.93-30.804 0-10.082 2.76-18.37 7.989-23.991 4.578-4.92 10.957-7.63 17.97-7.63m0-1.668c-14.343 0-27.627 10.665-27.627 33.28 0 18.17 11.25 28.911 21.04 32.38 2.334.826 4.586 1.243 6.587 1.243 1.985 0 4.228-.409 6.546-1.226C66.186 70.389 77.46 59.64 77.46 41.453c0-22.624-13.284-33.29-27.627-33.29z" fill="#ba8f63"/><path d="M42.161 38.109c-.775-1.026-2.56-2.51-6.029-2.51s-5.261 1.492-6.029 2.51c-.341.45-.258.975-.016 1.292.217.292.867.567 1.584.325.717-.241 2.118-.967 4.461-.984 2.344.017 3.745.743 4.462.984.717.242 1.367-.025 1.584-.325a1.061 1.061 0 00-.017-1.292zm27.402 0c-.775-1.026-2.56-2.51-6.029-2.51s-5.262 1.492-6.029 2.51a1.06 1.06 0 00-.017 1.292c.217.292.868.567 1.585.325.717-.241 2.118-.967 4.461-.984 2.343.017 3.744.743 4.461.984.717.242 1.368-.025 1.585-.325a1.073 1.073 0 00-.017-1.292z" fill="#b4691c"/><g fill="#5d4037" transform="translate(-3.536 -3.436) scale(.83389)"><ellipse cx="47.57" cy="58.87" rx="4.87" ry="5.04"/><ellipse cx="80.43" cy="58.87" rx="4.87" ry="5.04"/></g><path d="M53.019 53.31a.964.964 0 00-.267-.066h-5.83a1.043 1.043 0 00-.266.067c-.525.216-.817.758-.567 1.342.25.584 1.41 2.218 3.744 2.218 2.335 0 3.494-1.634 3.744-2.218.259-.575-.033-1.126-.558-1.342z" fill="#c48e6a"/><path d="M56.763 60.057c-2.627 1.56-11.224 1.56-13.851 0-1.51-.893-3.044.475-2.418 1.843.617 1.342 5.312 4.47 9.364 4.47 4.061 0 8.69-3.128 9.306-4.47.626-1.368-.892-2.744-2.401-1.843z" fill="#6d4c41"/><path d="M238.895 43.56s5.06-33.81-33.77-33.81c-38.83 0-34.6 33.81-34.6 33.81s-.64 40.8 2.23 46.71c2.87 5.91 4.83 5.99 4.83 5.99s-2.39-22.13-2.62-34.63c-.06-2.92-.94-13.73 5.16-15.09 22.36-5.02 35.01-16.89 35.01-16.89 3.29 7.19 13.58 14.19 17.27 16.86 3.03 2.19 2.61 11.2 2.55 15.03l-3.01 32.84s2.68.37 5.65-5.64 1.3-45.18 1.3-45.18z" fill="url(#d)" transform="translate(-120.785 -4.194) scale(.83389)"/><g transform="translate(-3.532 -3.402) scale(.83389)" clip-path="url(#e)"><path d="M63.17 109.48c-4 0-7.26-3.22-7.26-7.17v-8.98h16.16v8.98c0 3.96-3.26 7.17-7.26 7.17z" fill="#e59600"/><path d="M71.08 94.33v7.98c0 3.4-2.81 6.17-6.26 6.17h-1.65c-3.45 0-6.26-2.77-6.26-6.17v-7.98h14.17m2-2H54.92v9.98c0 4.51 3.7 8.17 8.26 8.17h1.65c4.56 0 8.26-3.66 8.26-8.17v-9.98z" fill="#d18100"/></g><g transform="translate(-3.532 -3.402) scale(.83389)" clip-path="url(#e)"><linearGradient gradientUnits="userSpaceOnUse" y2="139.27" y1="95.955" x2="64.119" x1="63.648" id="f"><stop offset="0" stop-color="#B3E5FC"/><stop offset="1" stop-color="#70AFE3"/></linearGradient><path d="M13.5 136.01v-15.26c0-16.24 25.36-23.53 50.5-23.56h.13c25.03 0 50.36 8.09 50.36 23.56v15.26z" fill="url(#f)"/><path d="M64.13 98.7c12.9 0 25.42 2.19 34.36 6 6.62 2.83 14.51 7.91 14.51 16.05v13.76H15v-13.76c0-15.2 24.61-22.03 49-22.06l.13.01m0-3H64c-25.49.03-52 7.28-52 25.06v16.76h104v-16.76C116 104 89.74 95.7 64.13 95.7z" fill="#3488c1"/></g><g transform="translate(-3.532 -3.402) scale(.83389)" clip-path="url(#e)"><linearGradient gradientUnits="userSpaceOnUse" y2="125.85" y1="105.84" x2="30.054" x1="29.837" id="g"><stop offset="0" stop-color="#651FFF"/><stop offset=".705" stop-color="#5914F2"/><stop offset="1" stop-color="#530EEB"/></linearGradient><path d="M13.5 136.01v-15.26c.67-14.89 17.28-19.32 32.92-22.78-1.34 4.39-3.48 14.63-3.48 35.29 0 .95.04 1.87.12 2.74H13.5z" fill="url(#g)"/><path d="M44.3 100.01c-1.32 5.46-2.86 15.6-2.86 33.26 0 .42.01.84.02 1.24H15v-13.69c.59-12.29 12.75-16.94 29.3-20.81m4.48-4.09C31.83 99.62 12.75 104 12 120.75v16.76h32.76c-.21-1.26-.32-2.66-.32-4.24 0-29.39 4.34-37.35 4.34-37.35z" fill="#4a00ed"/><linearGradient gradientUnits="userSpaceOnUse" gradientTransform="matrix(-1 0 0 1 128 0)" y2="125.85" y1="105.84" x2="29.664" x1="29.447" id="h"><stop offset="0" stop-color="#651FFF"/><stop offset=".705" stop-color="#5914F2"/><stop offset="1" stop-color="#530EEB"/></linearGradient><path d="M85.33 136.01c.08-.88.12-1.79.12-2.74 0-20.66-2.14-30.9-3.48-35.29 15.63 3.46 32.25 7.89 32.92 22.84v15.19z" fill="url(#h)"/><path d="M84.09 100.01c16.54 3.87 28.71 8.52 29.3 20.82v13.69H86.93c.02-.41.02-.82.02-1.24 0-17.67-1.53-27.81-2.86-33.27m-4.48-4.09s4.34 7.95 4.34 37.34c0 1.58-.12 2.99-.32 4.24h32.76v-16.76c-.75-16.74-19.83-21.12-36.78-24.82z" fill="#4a00ed"/><linearGradient gradientUnits="userSpaceOnUse" y2="122.58" y1="99" x2="39" x1="39" id="i"><stop offset="0" stop-opacity=".2" stop-color="#D1C4E9"/><stop offset=".785" stop-opacity=".6" stop-color="#D1C4E9"/></linearGradient><path d="M35.44 124c.01-4.87.51-14.69 3.75-25.91l3.38-.82c-3.55 11.48-4.09 21.82-4.12 26.74z" fill="url(#i)"/><linearGradient gradientUnits="userSpaceOnUse" gradientTransform="matrix(-1 0 0 1 184.48 0)" y2="122.39" y1="97.763" x2="95.476" x1="95.476" id="j"><stop offset="0" stop-opacity=".2" stop-color="#D1C4E9"/><stop offset=".785" stop-opacity=".6" stop-color="#D1C4E9"/></linearGradient><path d="M92.56 124c-.01-4.87-.51-14.69-3.75-25.91l-3.38-.82c3.55 11.48 4.09 21.82 4.12 26.74z" fill="url(#j)"/></g><g transform="translate(-3.532 -3.402) scale(.83389)" clip-path="url(#e)"><path d="M63.17 109.48c-4 0-7.26-3.22-7.26-7.17v-8.98h16.16v8.98c0 3.96-3.26 7.17-7.26 7.17z" fill="#edc391"/><path d="M71.08 94.33v7.98c0 3.4-2.81 6.17-6.26 6.17h-1.65c-3.45 0-6.26-2.77-6.26-6.17v-7.98h14.17m2-2H54.92v9.98c0 4.51 3.7 8.17 8.26 8.17h1.65c4.56 0 8.26-3.66 8.26-8.17v-9.98z" fill="#d9ac77"/></g><g transform="translate(-3.532 -3.402) scale(.83389)" clip-path="url(#e)"><linearGradient gradientUnits="userSpaceOnUse" y2="106.59" y1="95.283" x2="54.286" x1="54.286" id="k"><stop offset="0" stop-color="#E1F5FE"/><stop offset="1" stop-color="#81D4FA"/></linearGradient><path fill="url(#k)" d="M61.58 104.05l-12.66 5.18-1.93-11.65 6.62-3.76z"/><path d="M53.23 95.76l5.96 7.65-9.09 3.72-1.45-8.76 4.58-2.61m.77-3.88l-8.66 4.92 2.41 14.54 16.23-6.65zm10.21 12.64l-.22.17c.16-.13.22-.17.22-.17z" fill="#66c0e8"/></g><g transform="translate(-3.532 -3.402) scale(.83389)" clip-path="url(#e)"><linearGradient gradientUnits="userSpaceOnUse" gradientTransform="matrix(-1 0 0 1 143.71 0)" y2="106.59" y1="95.283" x2="69.79" x1="69.79" id="l"><stop offset="0" stop-color="#E1F5FE"/><stop offset="1" stop-color="#81D4FA"/></linearGradient><path fill="url(#l)" d="M81.22 97.58l-1.94 11.65-12.66-5.18 7.97-10.23z"/><path d="M74.98 95.76l4.59 2.61-1.45 8.76-9.09-3.72 5.95-7.65m-.77-3.88l-9.98 12.81 16.23 6.65 2.41-14.54zM64 104.52s.06.04.22.17z" fill="#66c0e8"/></g><path transform="translate(-3.532 -3.402) scale(.83389)" clip-path="url(#e)" d="M102.42 111.85c0-.02-.01-.03-.01-.05a.3.3 0 00-.04-.1c-.17-.54-.56-.97-1.09-1.13l-.15-.04h-.01l-3.75-1.08-34.93-10.03c-.05-.01-.09-.01-.14-.03a6.177 6.177 0 00-7.51 4.27l-1.44 5.03c-.1.34-.21.71-.32 1.11l-1.32 4.61-8.43 29.38c0 .01-.01.03-.01.04l-1.7 5.92-.61 2.14c-.48 1.66-.22 3.35.58 4.73.01.01.01.02.02.03.09.15.18.3.28.45.04.06.09.12.14.18.07.09.13.18.2.26.11.13.22.25.34.36l.04.04c.73.72 1.64 1.28 2.7 1.58l18.05 5.14 21.78 6.25 2.23.64.01-.05.06.02 7.46-26.21 6.9-24.03.63-2.19-.06-.02.01-.05-1.55-.44 1.64-5.72c.1-.34.09-.69 0-1.01z" fill="url(#m)"/><g transform="translate(-3.532 -3.402) scale(.83389)" clip-path="url(#e)"><path d="M104.46 109.53l-38.69-11.1a6.19 6.19 0 00-7.65 4.24L46.6 142.79a6.19 6.19 0 004.24 7.65l40.51 11.63 14.4-50.19c.29-1.01-.29-2.06-1.29-2.35z" fill="#424242"/><linearGradient gradientUnits="userSpaceOnUse" y2="128.14" y1="110.81" x2="76.945" x1="82.111" id="n"><stop offset="0" stop-color="#EF5350"/><stop offset="1" stop-color="#E53935"/></linearGradient><path d="M103.46 117.45l-41.52-11.9c-4.53-1.3-5.32 2.35-6.59 6.78L44.9 148.75c-1.27 4.43 1.37 9.07 5.89 10.37l37.61 10.79c1.25.36 2.54-.34 2.89-1.56l13.79-48.04c.35-1.22-.38-2.5-1.62-2.86z" fill="url(#n)"/><path d="M60.26 107.33c.31 0 .69.06 1.12.19l41.54 11.9c.1.03.16.09.19.14.03.05.04.11.02.16L89.32 167.8c-.03.11-.15.16-.25.16-.03 0-.06 0-.09-.01l-37.65-10.8a6.525 6.525 0 01-3.9-3.05 6.137 6.137 0 01-.58-4.77l10.47-36.46.17-.61c1.07-3.76 1.59-4.93 2.77-4.93m0-2.04c-3.06 0-3.81 3.22-4.9 7.03l-10.47 36.46c-1.27 4.42 1.36 9.05 5.88 10.34l37.65 10.8c.22.06.44.09.65.09 1 0 1.92-.64 2.21-1.64l13.81-48.08c.35-1.21-.37-2.47-1.61-2.83l-41.54-11.9c-.63-.19-1.19-.27-1.68-.27z" fill="#424242" opacity=".2"/><path d="M64.33 101.57c.19 0 .38.02.59.07l37.25 10.7-.31 1.08c-11.79-3.29-34.29-9.62-38.94-11.16.24-.33.71-.69 1.41-.69m0-3.33c-4.52 0-6.78 5.57-3.12 6.94 4.03 1.51 42.93 12.32 42.93 12.32l1.58-5.52c.3-1.06-.19-2.14-1.11-2.4L65.77 98.42c-.5-.12-.98-.18-1.44-.18z" fill="#424242" opacity=".2"/><linearGradient gradientUnits="userSpaceOnUse" gradientTransform="matrix(.9612 .2758 .3192 -1.1123 -45.204 492.51)" y2="349.23" y1="349.23" x2="37.882" x1="-5.564" id="o"><stop offset=".01" stop-color="#BDBDBD"/><stop offset=".987" stop-color="#F5F5F5"/></linearGradient><path d="M103.37 112.12l-39.8-11.42c-1.08-.31-2.26.46-2.62 1.71l-.07.22c-.36 1.25.23 2.53 1.31 2.84L102 116.88s-.34-.83.07-2.3c.41-1.47 1.3-2.46 1.3-2.46z" fill="url(#o)"/><defs><path d="M105.67 118.03l-44.5-12.66c-3.53-1-3.9.22-4.81 3.43L44.3 151.02c-.91 3.21 1.01 6.58 4.29 7.51l42.14 11.99z" id="p"/></defs><clipPath id="q"><use height="100%" width="100%" xlink:href="#p"/></clipPath><linearGradient gradientUnits="userSpaceOnUse" y2="108.46" y1="122.21" x2="57.437" x1="53.062" id="r"><stop offset="0" stop-color="#212121"/><stop offset="1" stop-color="#424242"/></linearGradient><path clip-path="url(#q)" fill="url(#r)" d="M39.13 158.05l6.43 1.84 18.07-62.94-6.43-1.85z"/></g><path stroke-miterlimit="10" d="M74.796 40.735c-.059-.992-.1-1.092-1.41-1.509-1.025-.325-6.629-.784-10.848-.55-.3.016-.593.033-.876.058-3.828.325-8.422 1.868-11.875 1.951-1.467.034-7.513-1.55-11.79-1.884-.276-.017-.551-.042-.835-.05-4.228-.217-9.856.283-10.882.609-1.31.417-1.35.525-1.4 1.517-.06.993.107 1.835.883 2.093 1.059.342 1.067 1.668 1.776 5.454.642 3.452 2.185 6.18 8.814 6.654.284.017.55.034.818.034 5.862.083 7.88-3.778 8.547-5.062 1.25-2.385.85-5.67 4.136-5.679 3.286-.008 2.96 3.22 4.228 5.596.675 1.275 2.643 5.153 8.456 5.07.283-.009.575-.017.875-.042 6.621-.517 8.156-3.252 8.773-6.704.683-3.795.692-5.112 1.742-5.47.768-.251.926-1.093.868-2.086zM40.973 53.444c-1.009.475-2.376.717-3.81.709-2.994-.009-6.313-1.06-7.514-3.177-1.701-3.019-2.143-9.123.025-10.399.95-.559 4.161-.942 7.48-.8 3.444.15 7.013.867 8.289 2.551 2.135 2.785-1.251 9.598-4.47 11.116zm29.103-2.585c-1.193 2.135-4.536 3.21-7.547 3.219-1.417.008-2.76-.225-3.76-.692-3.228-1.501-6.647-8.29-4.545-11.091 1.275-1.701 4.853-2.435 8.305-2.602 3.31-.158 6.513.209 7.455.759 2.185 1.276 1.776 7.38.092 10.407z" fill="#212121" stroke="#212121" stroke-width=".459"/></svg>